<?xml version="1.0" encoding="UTF-8"?>
<svg width="3871px" height="2367px" viewBox="0 0 3871 2367" version="1.1" xmlns="http://www.w3.org/2000/svg" xmlns:xlink="http://www.w3.org/1999/xlink">
    <!-- Generator: Sketch 58 (84663) - https://sketch.com -->
    <title>composition-20</title>
    <desc>Created with Sketch.</desc>
    <g id="composition-20" stroke="none" stroke-width="1" fill="none" fill-rule="evenodd">
        <rect fill="#E4D1B1" x="0" y="0" width="3871" height="2367"></rect>
        <g id="Illustrations/selfie" transform="translate(-835.000000, 341.000000)">
            <path d="M2923.60943,2145.31996 C2930.63521,2142.55985 2951.3127,2129.49222 2958.8941,2130.95804 C2971.36187,2133.36989 2992.02898,2169.03298 3000.49315,2179.16898 C3027.77581,2211.85885 3055.06366,2244.54872 3082.35151,2277.23859 C3093.27185,2290.32182 3109.02143,2304.05998 3116.80015,2319.20159 C3122.78738,2330.85019 3124.83852,2346.91184 3128.41112,2359.3973 C3172.78309,2514.48316 3216.17883,2670.57223 3248.49844,2828.6833 C3255.45672,2862.71425 3262.05669,2896.98429 3265.92528,2931.52983 C3267.83102,2948.60508 3272.8472,2973.69555 3265.4112,2990.19903 C3257.02492,3008.79727 3230.04344,3016.52662 3212.51275,3022.29114 C3178.41202,3033.5135 3142.70674,3040.19286 3107.38052,3046.19128 C3022.26112,3060.63637 2936.0772,3069.02585 2850.04906,3075.81437 C2823.7686,3077.88835 2796.71442,3077.85196 2770.60013,3081.38657 C2758.12717,3083.0707 2761.86594,3079.72322 2757.93504,3088.09711 C2752.46189,3099.7457 2756.09161,3124.05129 2755.44252,3136.74987 L2755.44252,3136.74987 L2750.85214,3226.36243 C2746.67717,3307.84021 2742.50221,3389.31798 2738.33244,3470.79576 C2734.10036,3553.40149 2729.87347,3636.00722 2725.63619,3718.61295 C2724.03683,3749.90978 2722.43227,3781.2118 2720.8329,3812.51382 C2719.9761,3829.2408 2722.52574,3850.84346 2718.03921,3867.04025 C2714.64316,3879.29181 2720.22535,3875.67924 2705.20275,3876.40695 C2670.41139,3878.08589 2634.36339,3873.87555 2599.56164,3872.62804 C2560.09162,3871.2194 2520.6164,3869.80556 2481.13599,3868.39692 C2469.86255,3867.99148 2457.26496,3871.18821 2452.72132,3863.10541 C2447.19105,3853.2657 2451.40236,3826.2104 2451.01291,3815.22195 C2449.91724,3784.60086 2448.82157,3753.97457 2447.7259,3723.35348 C2444.7193,3639.29232 2441.71271,3555.23117 2438.70611,3471.17001 C2434.60384,3356.52935 2430.49639,3241.88349 2426.39412,3127.23243 C2382.49988,3136.06894 2338.60045,3144.90025 2294.70102,3153.73155 C2229.8385,3166.78359 2164.97078,3179.83563 2100.10307,3192.88247 C2070.35386,3198.8705 2035.02245,3212.5307 2004.30219,3208.12284 C1973.78965,3203.74617 1961.17648,3190.71493 1959.46288,3161.75718 C1957.62465,3130.71506 1958.34125,3099.42863 1958.75667,3068.36052 C1959.44211,3017.54022 1960.90127,2966.73031 1962.82258,2915.9412 C2049.48942,2908.13908 2136.16146,2900.33177 2222.8283,2892.52446 C2268.97619,2888.3661 2315.12927,2884.21294 2361.27196,2880.05459 C2371.74572,2879.11376 2397.56403,2881.13576 2402.23749,2873.24008 C2409.50733,2860.96774 2401.41704,2820.62129 2401.19894,2806.74278 C2400.50831,2763.00728 2399.82287,2719.27177 2399.13223,2675.53627 C2396.60856,2514.61311 2394.08489,2353.69515 2391.55602,2192.772 C2412.30622,2193.45293 2433.05641,2194.07148 2453.8066,2194.65365 C2544.0824,2197.20064 2634.80477,2200.89118 2725.10653,2198.11548 C2770.39242,2196.72763 2813.30004,2184.51246 2856.05187,2170.09856 C2878.78569,2162.43679 2901.28584,2154.09409 2923.60943,2145.31996 Z M2836.49373,2580.08287 L2790.37422,2805.61533 L2948.19295,2795.15925 L2836.49373,2580.08287 Z" id="Accent" fill="#FF5678"></path>
            <g id="Ink" stroke-width="1" transform="translate(1433.830817, 111.562500)" fill="#000000">
                <path d="M2720.86468,639.420876 C2717.64031,664.50635 2719.93528,691.854863 2691.61166,698.467504 C2665.40129,704.592242 2636.64153,702.874201 2609.91712,705.01786 C2579.88527,707.431422 2549.94168,710.727361 2519.97213,713.696302 C2482.18828,717.438621 2487.57781,702.920915 2479.31697,670.65704 C2471.76747,641.196012 2459.7215,611.792078 2449.7005,583.057713 C2445.04307,569.70267 2439.48219,557.41686 2433.13209,544.830004 C2427.3791,533.436953 2430.11541,517.938251 2423.91588,508.36186 C2402.76274,475.687939 2299.59314,565.03645 2290.00828,547.425232 C2307.46456,533.836618 2337.67814,518.633772 2343.03133,495.380529 C2349.32951,468.052778 2331.9615,459.893381 2310.13856,469.885009 C2256.43533,494.48258 2194.46088,513.70803 2135.89253,522.671947 C2154.83378,510.012425 2326.15139,410.236288 2268.65784,380.640307 C2255.69803,373.970571 2238.39233,386.526284 2226.70462,391.275551 C2208.15798,398.817284 2188.78577,403.872788 2169.42394,408.814103 C2149.02367,414.02013 2128.57148,419.02892 2108.05698,423.762616 C2093.66932,427.084508 2068.0197,438.882415 2054.00068,435.970569 C2039.76878,433.012009 2064.98225,424.177853 2069.11007,422.09648 C2087.11153,413.028753 2104.82222,403.286267 2122.39273,393.41921 C2153.57207,375.911801 2182.36817,355.63269 2206.08109,328.564461 C2223.97351,308.140016 2253.51729,263.538427 2241.06114,235.297156 C2233.84394,218.926457 2218.02321,203.796278 2208.72912,188.287195 C2197.87736,170.172503 2189.11807,150.864007 2179.69417,131.991508 C2195.46817,138.925958 2213.17367,140.701094 2229.27478,146.924451 C2245.37588,153.152998 2261.72621,158.192931 2278.47634,162.822818 C2312.08045,172.108543 2345.58591,173.759108 2378.88887,181.29046 C2416.58446,189.813189 2455.86367,199.342867 2494.16156,204.268609 C2527.50606,208.550736 2557.49118,217.675557 2586.06402,235.852535 C2644.4091,272.985057 2684.88253,326.327375 2705.3555,392.292881 C2717.34955,430.935826 2720.26758,471.255289 2721.67986,511.460562 C2723.17003,553.851017 2726.29576,597.217277 2720.86468,639.420876 M2393.41673,642.54034 C2352.6733,672.234939 2305.17479,695.441468 2261.45102,720.703418 C2236.42967,735.153648 2210.87871,748.659214 2185.3589,762.206305 C2167.2484,771.81903 2145.24373,789.508104 2125.31076,794.439037 C2112.69884,797.558501 2113.63863,797.797262 2105.65817,786.300402 C2098.03079,775.322587 2091.36916,763.503919 2084.22984,752.199106 C2071.06754,731.354234 2057.78062,710.587219 2044.49371,689.820204 C2014.70589,643.267004 1984.97518,596.724184 1953.67642,551.162361 C1922.27901,505.444823 1892.15889,458.886432 1861.74281,412.520088 C1847.60436,390.964124 1833.55419,369.325113 1818.55384,348.360861 C1807.09459,332.353494 1777.72734,307.937589 1791.67367,289.091043 C1804.62828,271.583634 1834.14091,257.039976 1851.59719,243.788742 C1872.92687,227.61009 1894.38635,211.597533 1915.65892,195.335834 C1961.39208,160.378113 2005.92583,123.899587 2051.61745,88.8951516 C2090.39302,156.895317 2136.01195,220.644498 2182.02549,283.864253 C2140.41496,310.413436 2098.37867,335.649434 2054.53029,358.378441 C2022.14635,375.164376 1972.6021,397.846669 1952.14471,429.690117 C1931.99367,461.045662 1951.78645,497.223141 1987.70629,497.799282 C2009.18655,498.141852 2030.5993,492.453112 2051.65899,489.203886 C2066.86183,486.8578 2094.61949,475.900747 2108.32698,483.624146 C2083.68985,499.340847 1994.30562,545.146622 2042.48951,585.305181 C2076.92957,614.013593 2135.15523,572.121422 2172.35755,580.74277 C2161.01773,602.501162 2149.23136,637.209742 2180.70666,649.043981 C2206.90146,658.895467 2241.18575,640.536824 2264.75847,630.799528 C2281.79418,623.76646 2298.72085,616.494631 2315.47098,608.817947 C2328.78905,602.70878 2344.73958,590.334733 2358.97148,587.697981 C2375.57623,584.62004 2409.38803,630.892956 2393.41673,642.54034 M1635.98986,2246.24594 C1659.30297,2241.99495 1671.27106,2232.35628 1678.61287,2260.65464 C1685.19142,2286.00483 1691.70767,2310.42074 1700.18139,2335.29859 C1663.76829,2338.44401 1631.64915,2355.82684 1605.09609,2380.27908 C1586.18599,2397.70344 1548.57867,2439.28938 1557.90392,2468.46493 C1580.55242,2539.36656 1694.95282,2380.31023 1708.54607,2363.31148 C1725.18717,2387.62877 1731.30881,2419.46703 1739.58003,2447.27749 C1745.46802,2467.0687 1767.31692,2505.01093 1738.43255,2509.82249 C1697.88643,2516.58046 1621.81507,2531.67431 1626.62307,2589.09113 C1632.30337,2656.86292 1718.53073,2656.47882 1766.90673,2659.52562 C1794.18151,2661.23847 1794.30613,2683.09029 1798.18992,2707.54253 C1799.92931,2718.47882 1805.35519,2733.25605 1796.06629,2741.26492 C1787.82103,2748.37066 1762.56603,2748.56789 1751.83369,2750.86727 C1720.54532,2757.58372 1689.27771,2764.42993 1657.99453,2771.14119 C1622.47968,2778.76078 1603.69938,2768.0892 1570.50027,2758.36229 C1558.20507,2754.76011 1545.85794,2756.28091 1544.9545,2742.52101 C1544.39893,2734.07614 1552.66496,2721.02214 1555.37011,2712.6707 C1566.08687,2679.62826 1575.20962,2645.6152 1578.28861,2610.917 C1582.7695,2560.5021 1577.17228,2484.91349 1515.0836,2475.07757 C1485.54501,2470.39578 1479.86471,2468.86979 1466.53106,2441.15275 C1452.10705,2411.18306 1429.20931,2383.4245 1434.74423,2348.89759 C1438.74744,2323.87959 1431.99235,2276.53744 1447.96365,2255.78599 C1455.347,2246.19403 1469.73986,2240.46896 1479.56356,2233.4307 C1492.08202,2224.45121 1504.13838,2214.83849 1515.80532,2204.78457 C1525.61863,2196.33451 1537.58153,2179.81329 1548.70848,2173.70931 C1562.30174,2166.24544 1562.71711,2171.33208 1572.47851,2182.98985 C1586.88694,2200.2014 1609.79506,2251.02635 1635.98986,2246.24594 M1701.87925,2358.25079 C1693.80014,2374.55401 1675.12888,2389.71014 1663.23868,2403.31952 C1651.27578,2417.00675 1639.95672,2431.47255 1626.61269,2443.87774 C1611.92907,2457.53383 1559.77312,2490.51399 1571.26352,2446.12002 C1580.20454,2411.58791 1613.66327,2383.62174 1643.1136,2366.38942 C1648.81466,2363.04677 1715.55039,2330.6687 1701.87925,2358.25079 M1758.93666,2522.64291 C1764.10812,2545.75601 1766.89116,2569.58021 1771.30455,2592.8594 C1773.56836,2604.76112 1786.08683,2633.51105 1780.98287,2644.95601 C1772.33781,2664.35794 1694.52186,2641.39017 1678.3896,2634.71524 C1639.99307,2618.82206 1622.36545,2578.02508 1657.77645,2548.96891 C1671.20356,2537.95995 1753.7652,2499.54019 1758.93666,2522.64291 M1809.95032,2800.2285 C1814.28583,2822.29313 1826.96525,2842.74872 1806.00422,2859.43085 C1788.59987,2873.27898 1760.08414,2882.7308 1738.64024,2887.66174 C1709.40798,2894.37819 1700.01005,2878.0023 1684.5372,2856.93943 C1667.9013,2834.28828 1650.1906,2812.40531 1631.8153,2791.14002 C1689.52174,2778.22616 1747.22299,2765.30712 1804.93462,2752.39326 C1804.89828,2768.4681 1806.85055,2784.47547 1809.95032,2800.2285 M1671.68124,2902.63101 C1641.58708,2901.07388 1609.20834,2910.13122 1578.68841,2912.51364 C1540.57225,2915.48777 1502.56513,2919.81661 1464.41782,2922.37551 C1474.1896,2891.19644 1491.74453,2863.39116 1505.47797,2833.94052 C1519.25296,2804.38606 1528.92608,2801.18874 1560.61945,2798.91013 C1589.9867,2796.79761 1610.69851,2786.69179 1632.37087,2811.60079 C1654.92073,2837.50636 1675.34176,2865.65939 1695.92895,2893.1221 C1688.92464,2897.80908 1680.55476,2903.09296 1671.68124,2902.63101 M1456.56717,2908.99451 C1449.14228,2914.40297 1426.24455,2899.02884 1418.5289,2896.04951 C1403.51816,2890.25177 1400.18994,2888.38321 1392.35487,2873.74612 C1385.62574,2861.15927 1374.91936,2846.85437 1372.81132,2832.48719 C1370.02828,2813.5524 1378.40854,2788.61745 1381.46157,2769.80205 C1389.58741,2789.39083 1416.25989,2791.66425 1434.28212,2794.86676 C1447.91173,2797.2959 1488.29689,2793.42901 1498.57231,2803.13516 C1509.92772,2813.85864 1489.0238,2843.76086 1483.57715,2855.02415 C1477.07648,2868.46743 1469.04929,2899.90602 1456.56717,2908.99451 M1442.01855,2924.52955 C1433.08272,2925.97768 1407.36561,2934.86374 1407.87964,2918.54495 C1408.45597,2899.90602 1443.84102,2920.01385 1442.01855,2924.52955 M1396.70077,2923.55374 C1395.07041,2939.24968 1361.28976,2937.94688 1360.51612,2924.14026 C1359.20248,2900.80916 1399.29688,2898.48903 1396.70077,2923.55374 M1358.07577,2500.28762 C1349.44109,2524.88 1296.83861,2533.67782 1276.63565,2541.2507 C1258.18766,2548.16439 1203.07214,2580.08569 1184.04781,2568.50578 C1248.44184,2524.25714 1314.42989,2480.89607 1368.98984,2424.39796 C1371.2225,2438.3551 1367.82158,2450.01286 1363.70415,2463.22257 C1359.9917,2475.14505 1361.90244,2489.39285 1358.07577,2500.28762 M1342.06293,2589.96832 C1332.7948,2650.20875 1323.70321,2711.24333 1311.16398,2770.88167 C1287.26934,2763.58388 1267.56482,2748.78589 1242.46039,2743.63177 C1219.55228,2738.92922 1195.8861,2738.81503 1172.79106,2742.25111 C1123.56872,2749.56965 1079.68919,2773.91289 1036.74426,2797.63328 C1032.7774,2756.32244 1024.56329,2712.11013 1025.53424,2670.65396 C1026.33903,2636.21528 1085.28122,2626.02123 1112.01601,2611.79419 C1128.18981,2603.18841 1142.81632,2591.08427 1161.24354,2588.08418 C1180.20556,2584.99067 1198.50298,2585.0841 1217.23654,2579.30712 C1261.52107,2565.64584 1303.1991,2543.98607 1346.58537,2527.84375 C1350.13166,2548.52253 1345.20423,2569.59059 1342.06293,2589.96832 M1300.68086,2844.91833 C1298.71301,2858.61075 1301.1949,2883.04742 1290.75851,2893.48543 C1280.92962,2903.31615 1259.93744,2903.63796 1246.97763,2906.30066 C1207.49592,2914.42373 1168.05055,2922.62465 1128.62595,2931.00205 C1110.98795,2934.74955 1093.34475,2938.33097 1075.63406,2941.67881 C1067.1863,2943.27228 1045.99681,2951.37459 1038.88346,2944.65294 C1032.13356,2938.26868 1037.15964,2917.88057 1037.52309,2909.3267 C1038.25001,2892.23972 1039.21576,2875.10083 1038.14097,2858.00866 C1036.08485,2825.22055 1037.91251,2812.66484 1068.43244,2795.70243 C1100.85791,2777.67597 1134.34779,2765.33826 1170.84397,2758.65814 C1207.79707,2751.89498 1243.00039,2755.59577 1278.17255,2769.7761 C1287.9599,2773.72084 1302.63834,2778.5843 1307.19711,2789.1365 C1313.39144,2803.4933 1302.76814,2830.36948 1300.68086,2844.91833 M1256.23019,3373.42095 C1241.75944,3382.49387 1210.26857,3380.94711 1193.64305,3382.78972 C1166.79923,3385.75347 1139.78405,3384.06139 1113.11676,3379.9194 C1093.0436,3376.80513 1063.08444,3372.49186 1047.69986,3358.39977 C1025.84058,3338.38018 1051.06443,3337.46147 1067.79379,3338.86808 C1116.42941,3342.95816 1165.6777,3340.10341 1214.26659,3336.58947 C1223.72683,3335.90433 1249.15318,3327.5996 1258.27593,3331.48726 C1269.93767,3336.45452 1266.36542,3367.06783 1256.23019,3373.42095 M1228.65426,3696.97322 C1138.03947,3688.17021 1085.50449,3613.14735 1052.64287,3536.45318 C1035.00486,3495.27729 1041.36534,3452.07193 1039.62595,3408.5292 C1039.30922,3400.57742 1034.3143,3380.83811 1042.49206,3374.90023 C1050.17656,3369.3153 1081.26244,3386.57357 1089.66866,3388.63418 C1132.76935,3399.19676 1180.43402,3400.20889 1223.62818,3389.94736 C1242.34097,3385.50433 1252.81889,3377.24113 1258.764,3395.78143 C1263.55123,3410.71438 1255.69539,3438.22898 1254.83867,3453.87821 C1253.35888,3480.94644 1257.60094,3699.78126 1228.65426,3696.97322 M1047.63756,3697.05627 C1047.28968,3683.91403 1040.6592,3551.11621 1047.09237,3550.71655 C1066.21016,3591.94953 1085.84717,3628.83291 1120.65069,3659.16594 C1138.42888,3674.66983 1158.41897,3688.63735 1180.65209,3696.95765 C1189.00639,3700.0823 1236.33876,3702.45434 1238.65968,3712.81449 C1242.71481,3730.94995 1210.40357,3723.6314 1200.81871,3722.15731 C1193.12902,3720.9687 1186.20778,3717.69352 1178.66347,3716.32324 C1164.29138,3713.71763 1150.70851,3717.22119 1136.27411,3717.51186 C1114.34213,3717.95823 1092.80476,3715.65886 1070.8624,3717.55857 C1050.80482,3719.28699 1048.17236,3716.98243 1047.63756,3697.05627 M1061.01274,3101.40991 C1138.58465,3076.34001 1203.41483,3123.81711 1244.35556,3185.95725 C1267.69982,3221.39249 1272.91801,3246.17173 1268.83692,3288.13138 C1267.37271,3303.15256 1270.07267,3313.32066 1256.26134,3319.44021 C1242.5902,3325.50266 1211.53028,3321.00772 1196.73762,3321.69806 C1154.19768,3323.686 1111.81871,3326.32794 1069.27877,3323.80538 C1041.64572,3322.17039 1037.74117,3317.4886 1038.21885,3290.66951 C1038.79,3258.38487 1036.10562,3226.24557 1034.27795,3193.90903 C1032.29971,3158.92535 1020.28489,3114.56771 1061.01274,3101.40991 M1035.62793,3054.90861 C1035.67466,3031.18823 1034.25199,3006.85018 1035.70062,2983.16613 C1037.14406,2959.68451 1047.1391,2960.84717 1069.30992,2956.84014 C1117.32247,2948.16169 1165.27271,2938.45035 1212.63623,2926.68359 C1231.36979,2922.03294 1252.53851,2913.10535 1272.0561,2913.03226 C1292.53426,2912.95483 1291.44908,2923.48107 1290.08352,2941.61134 C1287.04607,2981.7699 1279.68868,3021.33674 1277.45083,3061.28249 C1275.03644,3104.39442 1273.76954,3148.06173 1273.96165,3191.22037 C1274.02915,3205.78998 1277.57025,3216.58094 1265.15044,3202.94561 C1252.70986,3189.28952 1246.62456,3167.52594 1235.51838,3152.17776 C1212.77123,3120.74955 1178.96462,3095.46684 1141.44557,3084.82121 C1120.70261,3078.93523 1098.88486,3077.91271 1077.73691,3082.17408 C1071.31932,3083.4665 1039.17942,3098.8043 1035.08794,3095.77307 C1032.32048,3093.72284 1035.62274,3055.86885 1035.62793,3054.90861 M1319.41443,3877.04052 C1350.18358,3899.06882 1384.25499,3916.86689 1418.74697,3932.31888 C1438.15553,3941.01289 1514.97975,3959.30925 1517.43049,3978.87727 C1518.73893,3989.31528 1506.00758,4001.01457 1497.66886,4002.24989 C1487.09229,4003.81741 1469.66198,3996.90892 1458.8881,3995.60092 C1419.70753,3990.84646 1380.60485,3990.81532 1342.37447,3979.91017 C1266.04869,3958.13102 1186.91392,3951.9959 1109.79374,3933.00921 C1091.4444,3928.49351 1073.05352,3924.2581 1054.61072,3920.16802 C1037.09214,3916.28037 1029.24149,3916.94475 1028.62361,3898.22796 C1027.25806,3857.1455 1039.04442,3815.0561 1039.13788,3773.46497 C1101.52771,3780.58628 1164.13042,3780.49285 1226.69159,3786.35287 C1253.49907,3788.85986 1252.87601,3793.94132 1264.62083,3817.36066 C1276.81738,3841.65718 1297.56033,3861.39649 1319.41443,3877.04052 M1015.21728,2542.34069 C1014.42806,2527.13266 1013.81018,2511.8831 1012.43424,2496.71658 C1011.51002,2486.52772 1002.20036,2458.04769 1007.4497,2450.11148 C1013.68557,2440.6908 1019.96817,2446.44183 1031.12627,2446.17711 C1045.83585,2445.82935 1058.15182,2439.91742 1070.28087,2432.17845 C1093.25129,2417.53099 1110.32854,2398.24844 1125.23543,2375.74262 C1138.351,2355.93584 1135.91065,2328.878 1135.74969,2305.1628 C1135.33431,2243.83756 1139.80482,2184.02275 1136.06123,2122.42761 C1134.3426,2094.13443 1158.49685,2111.48612 1178.00406,2115.15059 C1209.91031,2121.14037 1244.58921,2116.9932 1277.01468,2117.07106 C1275.81008,2124.61279 1209.50012,2143.33476 1198.78855,2150.46126 C1171.3632,2168.69533 1155.37113,2197.87089 1157.87378,2231.13133 C1162.90505,2298.04669 1236.61394,2309.23212 1290.47294,2309.36188 C1245.78861,2348.86644 1201.90389,2386.52839 1166.78365,2435.26158 C1140.89,2471.19511 1095.28146,2542.03965 1137.6137,2581.79335 C1100.1933,2603.04308 1063.10521,2626.68041 1020.78335,2636.90561 C1018.88818,2605.38916 1016.85802,2573.87271 1015.21728,2542.34069 M998.228301,1320.8499 C1013.4623,1330.63391 1019.86951,1316.80135 1031.46376,1309.63852 C1047.79332,1299.54308 1053.19843,1300.53446 1055.27013,1277.99231 C1059.102,1236.18318 1041.51073,1198.33957 1019.42298,1164.12408 C1009.3864,1148.57347 999.370591,1130.05393 985.200997,1117.89788 C972.282729,1106.81626 959.224272,1110.63124 947.256183,1099.1759 C942.557215,1094.67059 943.564508,1088.31228 935.796932,1088.49395 C930.682586,1088.61333 918.252389,1104.4546 914.025914,1107.95297 C900.681884,1118.99826 884.357514,1127.40679 866.870085,1118.29754 C841.407391,1105.04112 849.585153,1056.92559 869.362355,1041.33865 C884.591165,1029.33832 902.587432,1031.19131 919.924287,1029.25527 C932.925629,1027.80713 935.630781,1028.37289 930.282785,1013.49705 C926.533995,1003.0798 917.894125,994.951546 913.626112,984.762681 C905.422389,965.199852 907.208516,941.422372 903.667416,920.717643 C900.484579,902.166953 893.044114,882.10065 893.31411,863.259294 C893.667182,839.269006 901.507448,833.035269 922.297136,826.308437 C942.437794,819.794415 959.115235,805.432423 976.270362,793.364613 C995.6893,779.703332 1016.95667,770.68232 1036.91041,758.209654 C1050.45694,749.738829 1059.20065,732.615515 1074.09716,740.614008 C1091.79747,750.117733 1110.51546,777.63234 1125.56773,791.693286 C1103.54229,805.671184 1098.42275,811.785541 1101.45502,839.149626 C1104.24324,864.2351 1109.3524,886.590394 1128.53249,904.06666 C1135.90027,910.78311 1149.6441,916.160423 1155.35555,923.904583 C1162.01718,932.925596 1157.68686,924.973817 1156.84572,935.157492 C1156.39919,940.648994 1152.05329,944.24079 1152.99828,950.588718 C1157.22475,978.783275 1189.61907,962.142673 1202.9683,952.348282 C1250.66412,917.354228 1161.607,889.564526 1140.45385,876.816766 C1125.84811,868.008562 1118.62572,839.897051 1141.76749,847.366118 C1157.16245,852.333384 1191.94,894.448745 1195.47072,856.060132 C1233.64399,878.22857 1257.20113,925.331959 1289.21123,955.114796 C1312.29069,976.592903 1343.29868,1000.4171 1324.97531,1034.72082 C1301.63104,1078.44522 1255.33193,1098.29353 1213.06718,1117.16083 C1172.06934,1135.45719 1180.58459,1187.23718 1202.4958,1218.93011 C1215.16484,1237.25242 1231.7644,1247.98628 1251.73372,1256.88791 C1272.13399,1265.98678 1276.37085,1276.67393 1280.82578,1297.77833 C1285.77397,1321.18728 1280.51944,1330.62353 1260.24378,1342.71729 C1240.451,1354.53077 1219.75477,1365.97054 1198.6224,1375.21474 C1152.92559,1395.20838 1105.52053,1396.46966 1056.91607,1403.28473 C1039.88037,1405.67234 1023.54561,1410.64479 1014.25152,1393.76024 C1003.79956,1374.75798 1003.03111,1342.03215 998.228301,1320.8499 M990.881296,1229.91311 C979.442814,1223.88699 951.830537,1243.90658 937.370178,1244.78377 C913.979184,1246.20076 898.620569,1245.66615 877.856843,1258.07134 C838.603587,1281.52182 806.032731,1311.7147 774.557436,1344.4561 C739.104892,1381.33429 703.854846,1418.40452 668.521724,1455.39171 C652.508888,1472.14651 636.412976,1488.81306 620.145721,1505.31352 C607.326106,1518.3208 594.792064,1536.61197 578.924611,1545.89251 C579.750175,1534.86798 586.510458,1527.06672 588.909268,1516.84671 C590.305978,1510.8725 587.86563,1505.80142 588.769078,1500.08154 C589.065035,1498.22336 594.054767,1491.76643 594.812833,1489.64872 C596.837802,1484.0586 599.314496,1478.53596 601.718498,1472.73303 C603.961541,1467.31419 603.634431,1461.69812 605.908628,1456.04052 C608.250323,1450.20645 614.657534,1446.34475 616.879809,1440.59891 C623.396057,1423.78184 612.611796,1415.98577 595.363209,1416.38025 C602.113108,1382.73052 605.062294,1366.27158 640.250034,1354.4062 C673.86972,1343.07024 706.710572,1330.34325 737.593954,1312.62822 C765.014118,1296.90114 787.891081,1274.23442 814.252031,1256.70625 C837.850714,1241.01031 867.228349,1224.56694 866.984314,1192.38092 C880.36469,1201.45384 892.903924,1209.089 908.210617,1200.05761 C921.128884,1192.42764 922.84232,1186.28733 937.775172,1184.84957 C949.966527,1183.68172 957.521221,1183.37029 968.398942,1188.73203 C981.20298,1195.03325 982.952761,1199.41918 990.408803,1180.85811 C998.882522,1187.9898 1020.30566,1217.69478 1019.58913,1229.45116 C1019.19972,1235.92885 1018.21838,1238.85108 1010.1912,1240.55874 C998.804638,1242.97749 999.245978,1234.31981 990.881296,1229.91311 M937.541522,2987.88944 C931.975451,2996.41736 908.511766,2994.84465 899.451325,2994.73046 C871.828664,2994.37232 862.171117,2971.19175 850.052454,2948.79493 C830.945049,2913.48426 802.387786,2840.13273 833.733276,2803.07287 C858.47425,2773.82465 906.663332,2810.67689 923.543271,2832.76747 C938.117859,2851.85278 933.78754,2880.47815 935.142711,2903.37844 C936.285002,2922.68174 948.538664,2971.05679 937.541522,2987.88944 M862.077657,3000.67873 C851.033785,3011.71883 815.191824,3009.38312 800.560121,3011.75516 C774.443207,3015.98019 748.471674,3021.06165 723.133594,3028.77467 C704.270224,3034.51531 685.624928,3049.96211 680.650772,3023.67245 C676.476219,3001.57149 678.553111,2975.05864 678.952913,2952.75006 C679.383868,2928.68191 681.902099,2904.92 683.994568,2880.96086 C685.412046,2864.75625 681.865754,2834.94746 695.095555,2822.51113 C706.497691,2811.79284 734.219004,2810.75994 749.022051,2807.20967 C773.326877,2801.38079 798.722072,2793.72486 823.987461,2796.33566 C809.246721,2836.33851 807.995394,2878.28777 823.800541,2918.15048 C828.307396,2929.52796 868.900247,2993.85847 862.077657,3000.67873 M676.330837,2841.31615 C670.172853,2901.48911 663.978523,2962.04097 669.908049,3022.51498 C670.266313,3026.12234 674.575863,3042.64356 672.701469,3045.22841 C670.764767,3047.90669 655.426921,3049.29254 651.942935,3050.11263 C638.110835,3053.393 624.299505,3056.87061 610.379137,3059.78245 C583.286083,3065.44524 579.750175,3048.3323 574.433332,3023.22607 C563.046773,2969.43737 585.124133,2911.11741 598.499316,2859.4568 C605.015564,2834.29866 609.844338,2831.40238 634.585311,2829.31582 C651.802745,2827.86768 678.947721,2815.74797 676.330837,2841.31615 M571.707411,3065.80857 C561.354106,3075.22406 551.005992,3030.79894 550.09216,3026.27287 C546.473176,3008.29313 548.487761,2990.05905 548.539683,2971.79903 C548.627951,2943.27747 546.447215,2914.88568 546.405677,2886.49907 C546.379716,2871.14571 534.873735,2839.75383 553.046538,2831.63076 C558.378958,2829.24834 579.563255,2830.23972 584.371259,2833.37476 C594.355917,2839.89397 590.420207,2844.119 587.460636,2855.46015 C580.835351,2880.91414 575.108322,2906.49271 569.339755,2932.15952 C563.680225,2957.32285 558.098578,2981.53633 560.793345,3007.52494 C561.681216,3016.12033 578.306735,3059.8084 571.707411,3065.80857 M901.902058,2785.44089 C927.141486,2778.32997 928.491465,2797.66442 928.449928,2816.16839 C924.602485,2813.22022 888.734564,2789.15207 901.902058,2785.44089 M564.292908,1427.1764 C558.108962,1437.36526 518.938782,1440.14734 507.744336,1442.83081 C485.72409,1448.10431 463.69346,1453.34148 441.730329,1458.83299 C400.58191,1469.12047 360.445975,1480.72633 318.264302,1486.10883 C341.426838,1449.02822 348.633653,1417.00829 344.324102,1370.73538 C338.887838,1312.3116 331.976981,1254.47954 318.523914,1197.2911 C305.26296,1140.89679 289.909537,1084.88139 275.122067,1028.86599 C267.858138,1001.34619 260.002294,974.350626 250.339555,947.573063 C242.592749,926.110527 230.494854,899.094203 243.641579,877.09186 C277.006846,901.429908 303.767597,927.652092 322.797119,964.623711 C343.187004,1004.25803 360.985967,1044.94602 384.646957,1082.8623 C395.467564,1100.19842 408.100258,1116.00855 419.673738,1132.7893 C426.558634,1142.77574 431.574328,1157.17925 440.344004,1165.60336 C450.453275,1175.30951 461.232343,1179.8875 467.011295,1163.50642 C473.210817,1145.92634 453.433614,1111.13991 447.597548,1094.62906 C433.500645,1054.77155 419.523163,1014.99709 408.650634,974.111865 C399.854998,941.064231 385.316755,901.1081 390.462254,866.238616 C395.555832,831.716893 418.983171,856.423464 430.837031,872.472354 C455.276856,905.561511 469.908559,944.13179 485.962933,981.643217 C500.719249,1016.10784 517.93149,1048.96343 534.261052,1082.62873 C539.941351,1094.34359 547.428546,1124.60395 562.309476,1128.08674 C583.940304,1133.15782 582.107447,1102.70022 580.04094,1090.34175 C566.333454,1008.42078 530.548608,929.977417 523.123719,846.634263 C522.765456,842.653184 517.593995,811.686923 521.752971,809.102076 C529.816503,804.088095 540.694224,835.500735 544.173018,843.198182 C562.267938,883.232169 574.869479,925.435768 586.432574,967.727604 C596.266657,1003.69227 605.160946,1039.93204 616.199627,1075.55414 C622.264151,1095.13773 629.216546,1114.39432 636.070289,1133.70801 C642.269811,1151.20504 648.562793,1181.10725 664.731396,1192.63526 C687.670666,1208.99038 769.759816,1170.10349 778.077767,1204.86916 C783.996909,1229.58092 707.878824,1249.48113 691.668683,1256.98653 C670.32862,1266.86397 649.39355,1277.68088 628.043102,1287.5687 C611.879692,1295.04815 588.649656,1298.1157 576.956756,1312.19222 C564.568096,1327.1044 562.584664,1348.0427 562.216016,1366.54149 C561.930443,1380.54015 571.63472,1415.09301 564.292908,1427.1764 M512.417342,1697.01264 C511.332166,1704.77756 505.158605,1715.05985 502.380762,1722.45106 C496.726424,1737.50857 491.91842,1755.49869 484.052192,1769.56483 C477.286717,1781.67936 467.30206,1792.51184 460.765043,1804.80803 C454.56552,1816.47617 453.739956,1829.92983 446.496796,1841.61355 C438.209997,1854.9634 424.512896,1864.56575 416.283212,1877.83255 C412.228081,1884.37772 408.037951,1891.85198 402.30573,1898.82276 C382.009305,1923.51376 361.858262,1946.80852 345.533892,1973.25909 C341.359339,1980.03263 320.969454,2009.59228 312.853999,2011.19094 C295.890985,2014.52321 315.637034,1990.41355 318.954869,1985.42552 C342.989699,1949.36223 364.334955,1911.39404 387.533837,1874.77018 C410.005806,1839.30899 433.002191,1804.12289 454.627827,1768.12707 C472.265831,1738.78024 484.462378,1696.6493 513.128678,1675.97572 C513.237714,1683.00359 513.004064,1690.0159 512.417342,1697.01264 M1296.13766,1365.56568 C1310.09957,1422.95136 1326.79778,1478.56191 1342.53543,1535.43374 C1357.14117,1588.2051 1376.57568,1644.67727 1382.62982,1699.07844 C1388.62685,1752.97094 1402.40703,1807.49668 1420.93809,1858.64863 C1429.50527,1882.31711 1438.31649,1906.07383 1447.61577,1929.46721 C1452.72492,1942.31878 1458.43638,1954.87968 1464.2361,1967.43021 C1468.73776,1977.18307 1480.63316,1992.97244 1481.09007,2003.30664 C1481.45353,2011.58023 1484.33002,2008.27391 1476.16265,2014.49207 C1467.7045,2020.93343 1453.05203,2018.59253 1443.20237,2019.72924 C1417.51122,2022.69818 1392.45871,2032.36281 1367.4114,2038.6225 C1319.10809,2050.69031 1261.53145,2060.27189 1212.03393,2051.87374 C1191.21309,2048.33904 1169.58745,2045.27667 1149.00026,2040.67273 C1123.66737,2035.00475 1118.45957,2024.52522 1113.26215,1999.6318 C1101.89116,1945.20986 1092.09862,1890.92807 1082.71107,1836.14281 C1071.54777,1770.97663 1059.46546,1705.88312 1050.85155,1640.31209 C1042.14937,1573.97806 1035.89793,1507.57656 1022.26313,1441.964 C1077.26442,1451.16149 1129.0621,1461.5476 1184.22435,1446.4797 C1233.07284,1433.13504 1268.33847,1407.053 1296.13766,1365.56568 M1511.44385,2076.03012 C1523.73905,2101.36993 1494.1018,2124.15084 1479.74009,2143.66695 C1460.79884,2169.39085 1443.10891,2196.26703 1421.07828,2219.53585 C1414.46858,2193.09567 1408.66885,2163.34397 1391.03604,2141.6271 C1368.51215,2113.8945 1342.22389,2125.22526 1314.63239,2112.10898 C1343.56868,2098.03246 1380.51659,2103.40458 1411.21305,2090.85406 C1441.49413,2078.47482 1472.06598,2068.75829 1500.23902,2052.67826 C1503.98261,2060.45875 1507.67948,2068.26001 1511.44385,2076.03012 M1404.13085,2667.21269 C1385.63612,2668.2404 1398.00921,2629.2445 1399.20861,2619.55392 C1402.51087,2592.9165 1405.84947,2566.28427 1408.74155,2539.60013 C1424.00151,2579.83136 1439.25628,2620.06258 1454.50586,2660.28862 C1437.74015,2662.68142 1421.08348,2666.27321 1404.13085,2667.21269 M1374.04707,2860.06927 C1376.57049,2865.67496 1388.33608,2884.36061 1379.04719,2887.80707 C1366.31584,2892.52519 1364.78413,2861.5797 1374.04707,2860.06927 M1351.98009,2426.66619 C1293.06386,2473.69691 1234.55782,2520.84702 1170.81282,2561.33776 C1156.84572,2570.20825 1142.77997,2573.91943 1133.52223,2556.32897 C1126.24791,2542.49641 1133.93241,2526.91466 1138.60023,2513.37276 C1150.50082,2478.85104 1171.23339,2448.83982 1194.20901,2420.74388 C1240.09793,2364.63505 1294.71499,2316.71157 1364.4051,2294.58984 C1375.80723,2290.96691 1393.40889,2280.04619 1397.40172,2295.12965 C1399.7538,2304.00014 1389.80029,2326.15301 1387.78052,2334.4785 C1379.45737,2368.86008 1381.27465,2403.29357 1351.98009,2426.66619 M1521.57389,2769.65672 C1522.87194,2809.59209 1413.68455,2777.38012 1400.08091,2770.24324 C1414.35435,2765.45764 1520.98716,2751.70293 1521.57389,2769.65672 M1562.12001,2769.90586 C1568.6051,2771.63428 1593.48627,2773.82984 1584.19217,2782.33181 C1575.87422,2789.94102 1538.2046,2786.88903 1528.21994,2787.82331 C1534.9283,2765.78983 1540.02188,2764.02507 1562.12001,2769.90586 M1541.89108,2716.41302 C1539.45073,2725.29908 1538.45902,2738.85136 1530.49414,2744.93977 C1520.57179,2752.52821 1499.48614,2747.91909 1488.25535,2747.98137 C1469.1791,2748.07999 1450.12362,2749.0558 1431.14082,2750.95031 C1423.8769,2751.67179 1394.45772,2760.53709 1387.65071,2754.49021 C1382.65059,2750.04717 1384.5146,2729.20749 1388.15436,2724.5257 C1395.63117,2714.89741 1412.8486,2718.22968 1423.63805,2717.84559 C1463.11977,2716.43378 1502.3886,2716.31959 1541.89108,2716.41302 M1516.54262,2568.80164 C1510.97135,2560.52286 1509.97445,2560.6111 1507.5964,2548.1021 C1505.0574,2534.71591 1498.59308,2523.26577 1494.79237,2510.33115 C1486.43288,2481.86669 1513.1469,2484.39444 1532.74237,2494.83245 C1583.5743,2521.91106 1571.30506,2616.52269 1558.73467,2660.81804 C1540.45803,2647.38514 1533.71332,2641.29155 1527.42553,2619.6162 C1525.0371,2611.37895 1522.35791,2603.28703 1519.87084,2595.09649 C1518.04317,2589.06518 1519.31527,2572.92805 1516.54262,2568.80164 M1520.94563,2108.31476 C1535.13599,2106.60191 1548.12176,2150.62735 1544.06662,2160.15703 C1535.76944,2179.64719 1504.0605,2197.05598 1487.91266,2209.49751 C1477.15955,2217.77628 1466.47914,2227.27482 1454.98873,2234.49474 C1444.3187,2241.19562 1438.18149,2237.43773 1428.25914,2240.65581 C1413.90262,2245.30127 1410.42383,2260.48855 1395.72982,2267.01814 C1375.05436,2276.20525 1349.99666,2278.77452 1328.40218,2287.06887 C1302.20219,2297.13317 1278.18813,2297.40826 1250.71604,2292.63823 C1211.20836,2285.78164 1164.89887,2266.18248 1168.46074,2218.18633 C1174.73814,2133.49885 1342.95081,2090.10664 1388.82415,2161.91141 C1400.76628,2180.60224 1400.57936,2202.38658 1408.33136,2222.46327 C1416.7272,2244.19052 1424.86861,2235.65222 1437.49611,2219.65004 C1454.01779,2198.71174 1469.36602,2176.6523 1485.23866,2155.21572 C1490.37378,2148.28646 1510.70136,2109.56047 1520.94563,2108.31476 M490.075178,2932.85504 C489.270383,2947.25855 490.132293,2961.8645 485.121791,2975.60882 C480.074944,2989.46734 469.84106,3000.67354 463.947879,3014.14277 C452.000559,3041.43938 452.088827,3074.46625 452.566512,3103.71447 C453.677649,3171.76654 469.79433,3237.86181 478.319971,3305.09898 C449.944436,3305.0315 420.613531,3305.35331 393.110291,3297.24063 C368.545853,3289.99475 364.62572,3272.04615 357.678517,3249.42614 C338.17131,3185.89496 317.101243,3122.63887 310.803068,3056.10761 C307.807152,3024.4043 306.54544,2992.44147 305.112385,2960.63436 C303.861058,2932.73047 310.128079,2920.55885 335.320776,2906.74704 C390.078029,2876.71506 446.839483,2851.71264 501.035975,2820.25328 C495.495866,2857.57785 492.183224,2895.19309 490.075178,2932.85504 M2827.69481,703.175248 C2814.36116,700.730543 2800.9029,699.199358 2787.44984,697.595508 C2780.42994,696.754654 2758.55508,697.922506 2753.30054,693.349714 C2747.0491,687.904926 2757.8749,646.739419 2758.43047,637.905263 C2761.8158,584.780945 2757.88009,530.016443 2753.00459,477.094552 C2744.18818,381.289114 2714.05248,292.532315 2644.52333,223.545963 C2609.91712,189.205906 2571.01175,161.961202 2523.74688,148.813777 C2496.21249,141.152663 2467.83695,137.067774 2440.24025,129.640232 C2417.98117,123.640065 2397.20706,116.773091 2374.08087,114.395862 C2327.95829,109.651785 2285.79219,92.2274244 2240.78076,82.1475587 C2207.66472,74.7303969 2154.40282,57.1399413 2132.93296,94.5267964 C2116.03225,74.7096351 2099.03289,59.8285975 2077.71879,45.0461786 C2057.30294,30.8866144 2053.96434,16.7426216 2028.96375,33.0925582 C1980.39044,64.8633399 1934.89613,103.620475 1889.52643,139.766812 C1847.15264,173.525538 1806.1548,208.877734 1761.74566,239.921852 C1716.45384,271.588825 1725.04179,325.325617 1746.34031,369.875301 C1786.41394,453.727119 1848.22224,525.412508 1902.32527,597.289944 C1936.21495,642.31715 1970.21367,687.401452 2003.96836,732.516896 C2036.23806,775.639205 2064.1463,825.54544 2101.85227,864.287005 C2125.62749,888.7081 2154.00302,856.771224 2175.45732,842.014758 C2202.08826,823.687257 2228.25191,804.679807 2254.914,786.404211 C2310.43452,748.337406 2369.84401,712.684163 2428.45909,679.548292 C2432.72191,691.631674 2436.98473,703.715055 2441.24755,715.798437 C2428.37601,716.763862 2410.98204,713.888349 2404.43464,727.726105 C2395.07305,747.491362 2418.03828,750.08659 2422.06226,761.417356 C2425.66047,771.538745 2410.91454,798.269594 2406.55307,807.389225 C2396.74495,827.938241 2383.04785,845.653267 2367.95923,862.568964 C2308.26936,929.510276 2232.72761,977.392233 2156.08511,1023.03191 C2074.06865,1071.86372 1986.1642,1101.6777 1896.37498,1133.14744 C1850.71451,1149.14442 1803.32503,1156.57716 1756.21074,1166.82312 C1710.80988,1176.69537 1665.45057,1189.66112 1619.058,1193.38787 C1524.14404,1201.00227 1423.42517,1206.71177 1329.6587,1186.2458 C1319.39366,1184.00872 1308.53152,1179.15564 1298.08994,1178.23174 C1289.72007,1177.48951 1283.52055,1180.99825 1275.61797,1181.44982 C1258.64977,1182.42044 1248.92472,1167.24874 1235.44569,1181.34601 C1228.70099,1188.39465 1228.58156,1200.23408 1219.18363,1187.07628 C1207.22592,1170.33706 1237.78739,1167.09821 1249.11164,1162.32818 C1287.24337,1146.26891 1317.89311,1113.94275 1342.12005,1081.26364 C1366.33141,1048.61048 1369.81021,1013.73581 1355.06947,975.502907 C1340.33392,937.285579 1306.81808,911.380013 1281.65654,880.346276 C1269.48595,865.319905 1258.28631,849.421538 1244.92151,835.391736 C1237.78739,827.896717 1226.29179,820.723507 1225.84526,813.166203 C1225.32604,804.383951 1230.58577,800.018777 1227.43927,789.342009 C1226.62409,786.565115 1223.13492,784.987217 1222.39243,781.935228 C1221.21898,777.071771 1223.03626,772.898644 1222.42358,768.159758 C1221.01129,757.290943 1216.74847,750.465493 1210.7151,741.558671 C1206.95593,735.994502 1201.45736,724.855783 1196.2859,720.687847 C1187.22026,713.379685 1174.85757,716.359006 1165.64136,708.952225 C1151.05639,697.237366 1145.92646,672.551557 1133.02377,658.329707 C1114.86135,638.315309 1110.98795,658.537326 1091.74555,652.158255 C1075.29137,646.697895 1075.48348,621.94461 1062.18618,613.572405 C1043.45781,601.779688 1027.68382,623.475795 1011.05311,628.308109 C989.173052,634.666418 997.579272,609.985799 978.077258,607.738332 C960.465215,605.703673 936.072121,641.424392 927.286868,654.109867 C918.340657,643.68224 908.553304,625.915309 892.4522,632.278808 C875.551493,638.964116 872.545192,670.065329 860.192878,681.162524 C855.88852,685.019032 856.79716,687.868593 851.501086,689.643729 C844.662919,691.93272 835.550556,682.008568 826.708189,685.034604 C808.872881,691.13858 811.048425,714.936821 811.012079,730.352476 C789.967973,727.279726 775.28954,725.712208 768.243685,748.389311 C761.348404,770.583701 758.73152,760.78931 736.545123,767.998854 C717.416949,774.21183 714.742951,792.373236 711.586076,810.134976 C709.633797,821.180267 711.440693,825.690773 714.410649,835.760258 C718.159438,848.445733 718.159438,848.284829 712.048184,860.394163 C701.398921,881.519319 700.760277,904.793324 699.057226,928.041377 C697.25033,952.851757 692.909626,975.435431 699.960674,999.66448 C704.322147,1014.65971 704.654449,1035.06339 719.343267,1043.46155 C725.168948,1046.78863 735.065338,1044.96678 740.023917,1048.26791 C749.489351,1054.56912 746.607664,1064.16109 752.911031,1073.36377 C757.63596,1080.2515 765.25296,1080.91588 770.543842,1086.50081 C776.296833,1092.57883 776.63952,1099.98562 779.915817,1107.40278 C789.614901,1129.36879 798.737649,1139.99365 767.122163,1141.24974 C747.620149,1142.02312 726.814885,1147.87276 707.390754,1146.07687 C684.467061,1143.96435 678.765993,1131.1543 671.47091,1111.64857 C634.69954,1013.35171 614.937915,906.807221 566.50999,813.332297 C555.876304,792.809234 512.230422,708.962606 493.78243,770.054274 C478.226511,821.579932 498.637165,884.462307 506.461855,935.749204 C481.907801,913.62229 472.826592,873.769968 454.181295,846.753644 C440.411503,826.79634 397.290036,777.782864 372.014263,805.868421 C352.091678,828.005717 357.071026,874.943011 360.747125,901.409146 C366.557229,943.275365 379.937605,983.625971 389.4965,1024.68767 C377.460912,1008.95021 371.526193,989.729947 363.177088,972.00973 C352.704361,949.789388 339.635519,928.700565 324.744205,909.174069 C311.732478,892.107849 297.18385,876.245815 281.409857,861.696967 C269.3535,850.568629 247.759017,826.215009 230.635044,824.896633 C186.568592,821.517646 200.426653,902.338238 207.140205,925.446149 C221.050188,973.338487 236.133615,1019.90726 246.933453,1068.76502 C268.045058,1164.21751 293.616789,1257.46405 309.167516,1354.13111 C312.609964,1375.56769 316.758556,1392.67543 308.279645,1413.27635 C300.808027,1431.42738 293.056028,1453.13387 279.270658,1467.091 C248.065359,1498.69569 222.156133,1532.44404 198.832638,1570.52641 C173.847629,1611.31302 148.130516,1652.57195 127.735439,1695.87074 C118.358272,1715.79171 110.689349,1737.33729 99.9102806,1756.50045 C90.1800424,1773.79505 78.4819492,1787.46152 71.5658994,1806.60912 C38.5173583,1898.10129 14.0463804,1987.99479 2.84154902,2084.87466 C-6.35908175,2164.41321 2.21328925,2270.21546 98.2643438,2288.82844 C142.387911,2297.37712 182.004622,2277.81429 221.792677,2261.66678 C262.946289,2244.96908 292.702956,2217.823 326.27072,2188.97444 C367.9799,2153.12915 411.283095,2119.495 453.433614,2084.24661 C495.604903,2048.97746 534.557009,2009.86738 576.499839,1974.21932 C617.928639,1939.00208 655.406152,1901.59965 691.232536,1860.70405 C726.773347,1820.13544 755.642143,1775.19129 790.051049,1734.05692 C789.921243,1787.31619 782.013477,1840.08756 779.796395,1893.27416 C777.766234,1942.0385 777.719504,1990.75612 779.687359,2039.4945 C781.655214,2088.20693 768.783676,2134.57327 768.679832,2183.18189 C768.570795,2230.59671 766.691208,2277.73643 765.652762,2325.09934 C765.185461,2346.34907 761.021293,2370.18365 768.960212,2390.68076 C774.889738,2405.98741 793.52465,2410.77301 809.423257,2414.89943 C833.992887,2421.27331 907.91466,2408.99788 918.885841,2435.24082 C924.877674,2449.56129 918.844303,2475.63295 919.311604,2491.45865 C920.090438,2517.5355 921.045808,2543.60717 921.938872,2569.67883 C922.863089,2596.60691 923.761344,2623.535 924.742676,2650.45789 C925.61497,2674.17828 930.230862,2700.60808 927.369944,2724.09489 C924.924404,2744.22348 913.184773,2741.59192 894.581014,2742.62482 C866.501437,2744.17677 838.411475,2745.42248 810.316321,2746.64743 C769.105595,2748.4537 726.098357,2747.62842 686.590683,2752.49188 C669.996317,2754.53173 651.865051,2753.66492 634.362046,2756.99201 C612.409299,2761.16513 592.133643,2762.22398 569.869362,2763.32955 C551.919825,2764.21712 528.845556,2762.91432 514.743461,2776.18112 C509.852381,2780.78506 508.75682,2786.27137 505.288411,2791.39435 C498.792932,2800.9915 502.406724,2798.46894 491.747076,2800.62817 C450.11578,2809.05747 410.576952,2818.57158 369.86468,2832.75709 C349.485179,2839.85764 330.575079,2849.3925 310.102117,2856.07262 C292.157772,2861.92746 279.005855,2869.137 270.137527,2886.74822 C254.290842,2918.20238 258.304435,2963.70711 259.451918,2997.60598 C261.258814,3050.49153 273.00883,3100.83896 285.683062,3151.98571 C298.866133,3205.19308 309.203862,3259.82782 334.848284,3308.71153 C343.275272,3324.776 352.372058,3345.26792 369.584299,3353.64012 C391.807042,3364.44665 425.982297,3357.8963 450.235201,3357.93782 C466.512841,3357.96377 510.111992,3363.55389 522.277386,3349.90818 C534.058555,3336.69328 522.204695,3299.42581 520.543181,3283.02916 C514.712308,3225.56043 504.218812,3167.56227 504.359002,3109.70426 C517.635533,3129.31899 540.657879,3163.17634 563.695801,3133.1236 C569.365716,3125.7272 567.153826,3122.29111 577.221559,3118.0038 C582.792822,3115.63176 594.532453,3114.17843 600.596977,3114.58848 C608.847429,3115.14386 611.90046,3118.46056 619.481116,3116.83594 C626.189476,3115.39819 633.733786,3109.39283 641.42867,3107.56579 C736.79435,3084.90426 831.609654,3060.47797 927.385521,3040.2871 C952.708024,3034.94612 949.109809,3054.38438 950.781707,3076.27253 C952.630141,3100.48082 949.104617,3124.93306 952.463989,3148.87144 C955.387215,3169.70074 957.661411,3190.00061 953.543973,3210.95448 C948.689238,3235.66625 951.814961,3256.28793 956.648926,3280.76093 C975.278646,3375.13899 971.950427,3477.49998 976.150941,3573.4196 C978.336869,3623.37774 973.643094,3674.38436 978.342061,3724.07259 C980.117804,3742.84128 990.595723,3753.21181 994.842967,3770.28322 C999.71847,3789.88757 986.421171,3814.84848 982.376424,3833.84036 C974.250584,3871.95907 959.971953,3926.52114 986.088868,3959.68815 C1000.19096,3977.60561 1018.68049,3980.20084 1039.55845,3986.2581 C1064.54346,3993.50917 1089.1702,4001.95923 1114.27463,4008.8262 C1205.99537,4033.92725 1305.10984,4038.83742 1399.11515,4052.66999 C1422.13231,4056.05416 1443.48275,4055.73754 1466.65048,4054.13369 C1480.92911,4053.14232 1516.10128,4057.83968 1527.97591,4049.29619 C1534.33639,4044.7234 1531.11201,4038.99832 1534.34677,4033.4082 C1538.9367,4025.4668 1544.50277,4022.23834 1552.32227,4017.29703 C1565.27169,4009.11687 1580.24608,4004.33646 1582.43201,3987.44671 C1587.77481,3946.07359 1536.0654,3924.15429 1508.41678,3906.26798 C1473.08365,3883.39883 1430.40353,3874.56987 1392.90525,3855.90499 C1372.21421,3845.60712 1352.25528,3833.93898 1332.32231,3822.25526 C1323.67725,3817.18937 1306.15347,3811.45392 1300.13049,3803.47619 C1293.98289,3795.33755 1300.00068,3783.72131 1302.54487,3772.0895 C1313.05395,3724.03107 1309.50246,3674.88783 1314.93873,3626.32073 C1320.37499,3577.67578 1318.89521,3528.72978 1320.68652,3479.83568 C1322.53496,3429.48307 1326.69393,3379.25502 1329.88716,3328.97507 C1332.82596,3282.53606 1335.79072,3235.34963 1336.28398,3188.8639 C1336.74609,3145.75717 1342.62369,3103.46533 1344.01521,3060.07831 C1344.48771,3045.35298 1341.84486,3018.6429 1351.62183,3006.17023 C1360.19939,2995.22875 1388.5957,2996.60422 1401.84107,2994.68375 C1437.54284,2989.50368 1471.52079,2984.96203 1506.81757,2981.83737 C1590.80708,2974.40464 1684.2724,2968.9339 1763.69274,2939.66492 C1796.44533,2927.59711 1840.0289,2911.10703 1850.89624,2873.50217 C1863.39393,2830.27605 1847.07995,2777.14655 1846.53996,2732.94981 C1845.96362,2685.76338 1832.2821,2639.72403 1822.02225,2594.0013 C1810.97319,2544.78021 1804.0156,2494.71307 1792.07866,2445.67883 C1781.12306,2400.68277 1763.35525,2360.83564 1746.55839,2318.11818 C1739.74099,2300.79244 1700.92907,2241.09181 1712.96985,2226.36649 C1719.45495,2218.43547 1742.81479,2216.42677 1752.29061,2212.79864 C1772.71684,2204.987 1793.17941,2196.10094 1812.01682,2184.9726 C1837.16279,2170.11233 1892.22639,2145.53033 1894.76539,2112.51384 C1897.17977,2080.95586 1866.16659,2049.0657 1850.40298,2024.28646 C1825.00259,1984.35109 1792.96653,1949.44009 1768.77594,1908.71577 C1719.8859,1826.4159 1681.00649,1736.27325 1645.36183,1647.58392 C1626.71653,1601.18124 1620.62605,1557.48799 1617.55744,1507.96065 C1671.70201,1508.09042 1726.81234,1514.74977 1780.61422,1507.18209 C1839.16699,1498.93964 1897.79765,1485.06555 1955.83639,1473.63098 C2061.52941,1452.80168 2163.01154,1429.28372 2260.92141,1382.38276 C2352.611,1338.46631 2445.64537,1290.3975 2521.56095,1220.68448 C2560.81421,1184.63676 2600.85668,1147.89872 2634.75156,1106.67611 C2669.57584,1064.33237 2695.77064,1016.22204 2722.63524,968.682648 C2752.28806,916.212327 2775.89193,861.068922 2794.55281,803.672858 C2798.30679,792.134475 2798.32756,777.440293 2803.13037,766.540336 C2808.55106,754.233764 2818.4111,753.911956 2828.70729,747.429076 C2843.18842,738.309445 2852.83039,707.789563 2827.69481,703.175248" id="ink-shape"></path>
                <path d="M1567.1146,115.799304 C1579.4926,126.430589 1632.83836,163.879438 1650.06932,154.773671 C1671.32947,143.532177 1637.67021,109.670928 1628.60851,101.322659 C1617.07543,90.7018946 1575.86475,58.5713193 1560.08598,61.5539709 C1528.54956,67.5192742 1555.97758,106.230621 1567.1146,115.799304" id="ink-shape"></path>
                <path d="M1593.46353,500.146382 C1600.45788,486.385164 1619.05943,481.32612 1627.6587,468.009312 C1638.00786,452.000205 1642.76049,437.990944 1638.94492,418.359375 C1612.45855,427.27342 1582.32744,454.253262 1564.60601,475.352418 C1549.79414,492.984141 1528.75414,529.828859 1567.40685,529.921875 C1567.07034,524.676799 1566.73382,519.426556 1566.39213,514.186648 C1577.9838,515.871273 1588.19835,510.517679 1593.46353,500.146382" id="ink-shape"></path>
                <path d="M1467.29003,271.195605 C1484.3643,276.102589 1498.45568,275.407838 1515.90216,275.791651 C1528.56239,276.073438 1545.86208,283.030667 1556.12132,275.18921 C1547.01539,269.917846 1558.52231,269.626342 1556.2681,264.486155 C1554.37562,260.201047 1550.77938,261.605124 1547.85941,258.136227 C1537.43765,245.776458 1528.37366,245.927068 1511.84984,243.356975 C1499.04282,241.355314 1480.21237,236.739835 1467.90862,243.104338 C1454.96007,249.804071 1449.9484,266.210887 1467.29003,271.195605" id="ink-shape"></path>
                <path d="M1710.34348,650.29475 C1721.3874,641.034071 1733.42485,614.222542 1735.65769,600.390265 C1736.53096,594.97075 1732.6248,590.818002 1733.09019,586.828708 C1733.98437,579.228106 1749.60901,564.532589 1733.24183,558.295805 C1718.92448,552.835427 1705.46993,595.251686 1701.83045,604.507257 C1698.09685,613.972253 1687.93143,632.411884 1691.05322,641.570404 C1693.64164,649.165898 1702.88674,656.54175 1710.34348,650.29475" id="ink-shape"></path>
                <path d="M1842.44898,76.2106149 C1852.44115,66.9389273 1858.76294,56.4238689 1857.72874,43.6739585 C1856.90746,33.6305235 1849.38418,-0.996282103 1840.91796,0.0219957283 C1812.80705,3.41446871 1825.44555,91.9992807 1842.44898,76.2106149" id="ink-shape"></path>
                <path d="M1248.9619,1624.3324 C1246.64931,1615.86553 1238.23848,1564.0982 1223.6985,1567.6252 C1212.6506,1570.3055 1224.126,1615.86034 1224.64105,1621.85467 C1225.71752,1634.39394 1201.60784,1633.98358 1190.40541,1632.29021 C1172.63605,1629.60471 1174.06275,1619.19514 1171.40507,1603.04577 C1170.40587,1596.94236 1166.55841,1569.36012 1153.82628,1579.46322 C1145.22488,1586.28865 1151.37462,1620.30155 1152.09055,1628.06197 C1154.57311,1654.93777 1157.48831,1700.83543 1173.47044,1725.24389 C1179.84166,1734.97818 1185.57421,1739.783 1192.26991,1727.30087 C1199.04287,1714.6681 1183.70971,1676.16206 1181.02628,1663.23841 C1193.67601,1664.47467 1230.08517,1660.3711 1237.70282,1673.50772 C1244.6612,1685.49639 1233.53089,1719.75341 1255.85333,1722.53242 C1269.09536,1724.18423 1266.69521,1708.84519 1265.42303,1697.05391 C1262.7499,1672.31301 1255.48764,1648.2318 1248.9619,1624.3324" id="ink-shape"></path>
                <path d="M1282.87728,1612.35743 C1268.2156,1618.97797 1286.62456,1715.52405 1308.07396,1712.41069 C1333.10953,1708.77045 1296.84772,1606.04556 1282.87728,1612.35743" id="ink-shape"></path>
                <path d="M1266.53739,1580.38612 C1264.7308,1602.12434 1292.98362,1610.22891 1294.32103,1586.60507 C1295.35105,1568.37747 1268.44104,1557.53391 1266.53739,1580.38612" id="ink-shape"></path>
                <path d="M1111.45006,1004.03909 C1124.35042,1052.10054 1241.75426,1072.54308 1225.9382,1007.72835 C1218.01443,975.272979 1184.93495,1004.10479 1161.83491,1000.32962 C1146.88936,997.888644 1102.36736,970.148446 1111.45006,1004.03909" id="ink-shape"></path>
                <path d="M1081.96486,918.311553 C1087.48525,892.592504 1031.22028,864.20859 1010.80456,871.289075 C980.937024,881.648997 981.065167,947.88846 1003.84897,965.499295 C1006.84751,967.818141 1016.03792,973.344121 1020.53829,968.93883 C1027.64254,961.971963 1019.8822,963.872487 1018.22147,956.915949 C1015.59198,945.85366 1006.98591,931.651373 1015.5561,919.065566 C1031.75848,895.288356 1074.06101,955.16003 1081.96486,918.311553" id="ink-shape"></path>
                <path d="M910.402061,1043.13961 C890.114768,1041.99978 873.481369,1073.48084 903.327289,1070.84295 C909.043626,1070.33816 921.324081,1068.89981 924.640845,1062.89669 C930.129123,1052.94759 919.321132,1043.63897 910.402061,1043.13961" id="ink-shape"></path>
                <path d="M1894.55332,292.642057 C1887.61028,282.599923 1873.05343,266.439234 1860.52893,276.511784 C1849.42608,285.443758 1851.36332,307.489816 1855.62325,318.44441 C1867.08152,347.93716 1894.15286,374.210951 1924.78832,357.21891 C1914.146,335.90282 1908.14906,312.30051 1894.55332,292.642057" id="ink-shape"></path>
            </g>
        </g>
    </g>
</svg>